<svg width="32" height="32" viewBox="0 0 32 32" fill="none" xmlns="http://www.w3.org/2000/svg">
<rect width="32" height="32" rx="4" fill="#262626"></rect>
<path d="M16.6471 26C15.0976 26 13.6979 25.9212 12.4478 25.7635C11.2153 25.6058 10.1413 25.4306 9.22569 25.2378C8.32773 25.0276 7.60584 24.8349 7.06002 24.6597C6.53181 24.4669 6.18848 24.3355 6.03001 24.2654C5.97719 24.2304 5.95078 24.1954 5.95078 24.1603L5.55462 20.113C5.55462 19.9904 5.59864 19.929 5.68667 19.929C5.70428 19.929 5.71309 19.9378 5.71309 19.9553C5.73069 19.9553 5.7483 19.9553 5.76591 19.9553C6.0124 20.0955 6.42617 20.3057 7.0072 20.5861C7.58824 20.8489 8.33653 21.1117 9.2521 21.3745C10.1677 21.6373 11.2417 21.8738 12.4742 22.0841C13.7067 22.2768 15.0976 22.3732 16.6471 22.3732C18.6719 22.3732 20.2565 22.1542 21.401 21.7162C22.563 21.2606 23.1441 20.6649 23.1441 19.929C23.1441 19.6662 23.0032 19.4209 22.7215 19.1932C22.4398 18.9479 21.9908 18.7376 21.3745 18.5624C20.7583 18.3697 19.9748 18.2208 19.024 18.1156C18.0732 18.0105 16.92 17.958 15.5642 17.958C13.8739 17.958 12.439 17.8528 11.2593 17.6426C10.0972 17.4323 9.12005 17.1608 8.32773 16.8279C7.55302 16.4774 6.93677 16.092 6.47899 15.6715C6.03882 15.251 5.70428 14.8305 5.47539 14.41C5.26411 13.972 5.13205 13.5602 5.07923 13.1748C5.02641 12.7893 5 12.4739 5 12.2286C5 10.9847 5.34334 9.9597 6.03001 9.15374C6.73429 8.34779 7.63225 7.71704 8.72389 7.2615C9.81553 6.78844 11.0392 6.4643 12.395 6.28909C13.7683 6.09636 15.1152 6 16.4358 6C17.6331 6 18.7247 6.07884 19.7107 6.23653C20.7143 6.3767 21.5946 6.54315 22.3517 6.73587C23.1088 6.9286 23.7251 7.12133 24.2005 7.31406C24.6759 7.48927 24.984 7.61191 25.1248 7.682C25.1777 7.682 25.2041 7.71704 25.2041 7.78712L25.4682 11.703C25.5034 11.8081 25.4594 11.8607 25.3361 11.8607C25.3185 11.8607 25.3009 11.8607 25.2833 11.8607C25.2833 11.8432 25.2745 11.8344 25.2569 11.8344C24.94 11.6417 24.491 11.4227 23.91 11.1774C23.3465 10.9146 22.6775 10.6693 21.9028 10.4415C21.128 10.2138 20.2741 10.021 19.3409 9.86334C18.4254 9.70565 17.457 9.62681 16.4358 9.62681C14.7807 9.62681 13.4426 9.71441 12.4214 9.88962C11.4002 10.0648 10.6078 10.2838 10.0444 10.5466C9.48099 10.7919 9.10244 11.0723 8.90876 11.3876C8.73269 11.6855 8.64466 11.9658 8.64466 12.2286C8.64466 12.9645 9.2609 13.4989 10.4934 13.8318C11.7259 14.1647 13.4162 14.3311 15.5642 14.3311C16.2157 14.3311 16.9464 14.3487 17.7563 14.3837C18.5662 14.4187 19.3938 14.5064 20.2389 14.6465C21.084 14.7692 21.9116 14.9531 22.7215 15.1984C23.5314 15.4437 24.2533 15.7854 24.8872 16.2234C25.521 16.6439 26.0316 17.1695 26.419 17.8003C26.8063 18.431 27 19.1844 27 20.0604C27 20.2532 26.9648 20.5423 26.8944 20.9277C26.8239 21.2957 26.6655 21.6986 26.419 22.1367C26.1901 22.5747 25.8467 23.0215 25.389 23.477C24.9312 23.9325 24.3149 24.353 23.5402 24.7385C22.7831 25.1064 21.8411 25.4043 20.7143 25.6321C19.5874 25.8774 18.2317 26 16.6471 26Z" fill="white"></path>
</svg>