<svg width="169" height="16" viewBox="0 0 169 16" fill="none" xmlns="http://www.w3.org/2000/svg">
<path d="M151.336 14.6801L158.476 0.400069C158.53 0.346735 158.576 0.320068 158.616 0.320068L161.616 0.320068C161.683 0.320068 161.73 0.346735 161.756 0.400069L168.916 14.6801C168.943 14.7334 168.936 14.7867 168.896 14.8401C168.87 14.8934 168.83 14.9201 168.776 14.9201L166.036 14.9201C165.97 14.9201 165.923 14.8867 165.896 14.8201L164.696 12.4201C164.67 12.3667 164.623 12.3401 164.556 12.3401H155.676C155.623 12.3401 155.583 12.3667 155.556 12.4201L154.356 14.8201C154.316 14.8867 154.27 14.9201 154.216 14.9201H151.476C151.41 14.9201 151.363 14.8934 151.336 14.8401C151.31 14.7867 151.31 14.7334 151.336 14.6801ZM157.116 9.58007H163.116C163.156 9.58007 163.183 9.56674 163.196 9.54007C163.223 9.50007 163.223 9.46673 163.196 9.44007L160.176 3.40007C160.15 3.3334 160.116 3.3334 160.076 3.40007L157.036 9.44007C157.01 9.5334 157.036 9.58007 157.116 9.58007Z" fill="#262626"></path>
<path d="M130.329 0.300049L132.309 0.300049C132.363 0.300049 132.416 0.326715 132.469 0.380048L139.369 8.70005C139.396 8.72672 139.429 8.72672 139.469 8.70005L146.349 0.380048C146.403 0.326715 146.456 0.300049 146.509 0.300049L148.509 0.300049C148.643 0.300049 148.709 0.373382 148.709 0.520048V14.68C148.709 14.8267 148.643 14.9 148.509 14.9H146.169C146.036 14.9 145.969 14.8267 145.969 14.68V5.36005C145.969 5.32005 145.949 5.30005 145.909 5.30005C145.883 5.30005 145.863 5.30671 145.849 5.32005L140.189 12.14C140.136 12.1934 140.083 12.22 140.029 12.22H138.809C138.743 12.22 138.683 12.1934 138.629 12.14L132.969 5.32005C132.943 5.30671 132.929 5.30005 132.929 5.30005C132.889 5.30005 132.869 5.32005 132.869 5.36005V14.68C132.869 14.8267 132.796 14.9 132.649 14.9H130.329C130.183 14.9 130.109 14.8267 130.109 14.68V0.520048C130.109 0.373382 130.183 0.300049 130.329 0.300049Z" fill="#262626"></path>
<path d="M109.911 14.6801L117.051 0.400069C117.104 0.346735 117.151 0.320068 117.191 0.320068L120.191 0.320068C120.257 0.320068 120.304 0.346735 120.331 0.400069L127.491 14.6801C127.517 14.7334 127.511 14.7867 127.471 14.8401C127.444 14.8934 127.404 14.9201 127.351 14.9201L124.611 14.9201C124.544 14.9201 124.497 14.8867 124.471 14.8201L123.271 12.4201C123.244 12.3667 123.197 12.3401 123.131 12.3401H114.251C114.197 12.3401 114.157 12.3667 114.131 12.4201L112.931 14.8201C112.891 14.8867 112.844 14.9201 112.791 14.9201H110.051C109.984 14.9201 109.937 14.8934 109.911 14.8401C109.884 14.7867 109.884 14.7334 109.911 14.6801ZM115.691 9.58007H121.691C121.731 9.58007 121.757 9.56674 121.771 9.54007C121.797 9.50007 121.797 9.46673 121.771 9.44007L118.751 3.40007C118.724 3.3334 118.691 3.3334 118.651 3.40007L115.611 9.44007C115.584 9.5334 115.611 9.58007 115.691 9.58007Z" fill="#262626"></path>
<path d="M91.9304 0.340068L93.9504 0.340068C94.0304 0.340068 94.0771 0.360068 94.0904 0.400069L104.41 10.4201C104.424 10.4334 104.444 10.4401 104.47 10.4401C104.51 10.4401 104.53 10.4201 104.53 10.3801L104.51 0.520068C104.51 0.386735 104.577 0.320068 104.71 0.320068L107.07 0.320068C107.204 0.320068 107.27 0.386735 107.27 0.520068L107.29 14.6801C107.29 14.8267 107.217 14.9001 107.07 14.9001H105.15C105.084 14.9001 105.037 14.8801 105.01 14.8401L94.5904 4.72007C94.5638 4.6934 94.5371 4.68673 94.5104 4.70007C94.4971 4.7134 94.4904 4.7334 94.4904 4.76007V14.7001C94.4904 14.8334 94.4171 14.9001 94.2704 14.9001H91.9304C91.7971 14.9001 91.7304 14.8334 91.7304 14.7001V0.540068C91.7304 0.406735 91.7971 0.340068 91.9304 0.340068Z" fill="#262626"></path>
<path d="M72.8047 0.440068C72.8047 0.360068 72.8447 0.320068 72.9247 0.320068L84.1647 0.320068C84.818 0.320068 85.418 0.453402 85.9647 0.720068C86.5247 0.973401 87.0047 1.32007 87.4047 1.76007C87.818 2.20007 88.138 2.70674 88.3647 3.28007C88.6047 3.84007 88.7247 4.42007 88.7247 5.02007C88.7247 5.6334 88.6113 6.20007 88.3847 6.72007C88.158 7.24007 87.8447 7.6934 87.4447 8.08007C87.0447 8.46674 86.5647 8.7734 86.0047 9.00007C85.458 9.2134 84.8647 9.32674 84.2247 9.34007C84.1713 9.34007 84.1647 9.36007 84.2047 9.40007L89.1047 14.7401C89.1313 14.7667 89.1313 14.8001 89.1047 14.8401C89.0913 14.8801 89.0647 14.9001 89.0247 14.9001L85.7847 14.9001C85.758 14.9001 85.7313 14.8867 85.7047 14.8601L80.6647 9.38007C80.638 9.3534 80.6113 9.34007 80.5847 9.34007H75.6847C75.6047 9.34007 75.5647 9.38007 75.5647 9.46007V14.7601C75.5647 14.8401 75.5247 14.8801 75.4447 14.8801H72.9247C72.8447 14.8801 72.8047 14.8401 72.8047 14.7601V0.440068ZM75.6847 6.58007L84.1647 6.58007C84.378 6.58007 84.5913 6.5534 84.8047 6.50007C85.018 6.4334 85.2113 6.34007 85.3847 6.22007C85.558 6.08673 85.698 5.92007 85.8047 5.72007C85.9113 5.52007 85.9647 5.28673 85.9647 5.02007C85.9647 4.7534 85.9113 4.50673 85.8047 4.28007C85.7113 4.04007 85.578 3.8334 85.4047 3.66007C85.2313 3.48673 85.038 3.34673 84.8247 3.24007C84.6113 3.1334 84.3913 3.08007 84.1647 3.08007L75.6847 3.08007C75.6047 3.08007 75.5647 3.12007 75.5647 3.20007V6.46007C75.5647 6.54007 75.6047 6.58007 75.6847 6.58007Z" fill="#262626"></path>
<path d="M52.6059 14.6801L59.7459 0.400069C59.7993 0.346735 59.8459 0.320068 59.8859 0.320068L62.8859 0.320068C62.9526 0.320068 62.9993 0.346735 63.0259 0.400069L70.1859 14.6801C70.2126 14.7334 70.2059 14.7867 70.1659 14.8401C70.1393 14.8934 70.0993 14.9201 70.0459 14.9201L67.3059 14.9201C67.2393 14.9201 67.1926 14.8867 67.1659 14.8201L65.9659 12.4201C65.9393 12.3667 65.8926 12.3401 65.8259 12.3401H56.9459C56.8926 12.3401 56.8526 12.3667 56.8259 12.4201L55.6259 14.8201C55.5859 14.8867 55.5393 14.9201 55.4859 14.9201H52.7459C52.6793 14.9201 52.6326 14.8934 52.6059 14.8401C52.5793 14.7867 52.5793 14.7334 52.6059 14.6801ZM58.3859 9.58007H64.3859C64.4259 9.58007 64.4526 9.56674 64.4659 9.54007C64.4926 9.50007 64.4926 9.46673 64.4659 9.44007L61.4459 3.40007C61.4193 3.3334 61.3859 3.3334 61.3459 3.40007L58.3059 9.44007C58.2793 9.5334 58.3059 9.58007 58.3859 9.58007Z" fill="#262626"></path>
<path d="M39.1566 0.320068L52.1966 0.320068C52.2899 0.320068 52.3432 0.360068 52.3566 0.440068L53.1366 2.86007C53.1632 2.9134 53.1566 2.96673 53.1166 3.02007C53.0899 3.06007 53.0432 3.08007 52.9766 3.08007L41.8966 3.08007C41.7899 3.08007 41.7366 3.1334 41.7366 3.24007V6.94007C41.7366 7.04673 41.7899 7.10007 41.8966 7.10007L50.3966 7.10007C50.4632 7.10007 50.5099 7.12673 50.5366 7.18007C50.5766 7.22007 50.5832 7.26674 50.5566 7.32007L49.7966 9.74007C49.7699 9.82007 49.7166 9.86007 49.6366 9.86007H41.8966C41.7899 9.86007 41.7366 9.9134 41.7366 10.0201V14.7401C41.7366 14.8601 41.6766 14.9201 41.5566 14.9201H39.1566C39.0366 14.9201 38.9766 14.8601 38.9766 14.7401V0.500068C38.9766 0.380068 39.0366 0.320068 39.1566 0.320068Z" fill="#262626"></path>
<path d="M18.7778 14.6801L25.9178 0.400069C25.9711 0.346735 26.0178 0.320068 26.0578 0.320068L29.0578 0.320068C29.1245 0.320068 29.1711 0.346735 29.1978 0.400069L36.3578 14.6801C36.3845 14.7334 36.3778 14.7867 36.3378 14.8401C36.3111 14.8934 36.2711 14.9201 36.2178 14.9201L33.4778 14.9201C33.4111 14.9201 33.3645 14.8867 33.3378 14.8201L32.1378 12.4201C32.1111 12.3667 32.0645 12.3401 31.9978 12.3401H23.1178C23.0645 12.3401 23.0245 12.3667 22.9978 12.4201L21.7978 14.8201C21.7578 14.8867 21.7111 14.9201 21.6578 14.9201H18.9178C18.8511 14.9201 18.8045 14.8934 18.7778 14.8401C18.7511 14.7867 18.7511 14.7334 18.7778 14.6801ZM24.5578 9.58007H30.5578C30.5978 9.58007 30.6245 9.56674 30.6378 9.54007C30.6645 9.50007 30.6645 9.46673 30.6378 9.44007L27.6178 3.40007C27.5911 3.3334 27.5578 3.3334 27.5178 3.40007L24.4778 9.44007C24.4511 9.5334 24.4778 9.58007 24.5578 9.58007Z" fill="#262626"></path>
<path d="M8.82 15.22C7.64667 15.22 6.58667 15.16 5.64 15.04C4.70667 14.92 3.89333 14.7867 3.2 14.64C2.52 14.48 1.97333 14.3333 1.56 14.2C1.16 14.0533 0.9 13.9533 0.78 13.9C0.74 13.8733 0.72 13.8467 0.72 13.82L0.42 10.74C0.42 10.6467 0.453333 10.6 0.52 10.6C0.533333 10.6 0.54 10.6067 0.54 10.62C0.553333 10.62 0.566667 10.62 0.58 10.62C0.766667 10.7267 1.08 10.8867 1.52 11.1C1.96 11.3 2.52667 11.5 3.22 11.7C3.91333 11.9 4.72667 12.08 5.66 12.24C6.59333 12.3867 7.64667 12.46 8.82 12.46C10.3533 12.46 11.5533 12.2933 12.42 11.96C13.3 11.6133 13.74 11.16 13.74 10.6C13.74 10.4 13.6333 10.2133 13.42 10.04C13.2067 9.85333 12.8667 9.69333 12.4 9.56C11.9333 9.41333 11.34 9.3 10.62 9.22C9.9 9.14 9.02667 9.1 8 9.1C6.72 9.1 5.63333 9.02 4.74 8.86C3.86 8.7 3.12 8.49333 2.52 8.24C1.93333 7.97333 1.46667 7.68 1.12 7.36C0.786667 7.04 0.533333 6.72 0.36 6.4C0.2 6.06667 0.1 5.75333 0.0600001 5.46C0.0200001 5.16667 0 4.92667 0 4.74C0 3.79333 0.26 3.01333 0.78 2.4C1.31333 1.78667 1.99333 1.30667 2.82 0.960001C3.64667 0.600001 4.57333 0.353334 5.6 0.220001C6.64 0.0733336 7.66 0 8.66 0C9.56667 0 10.3933 0.06 11.14 0.18C11.9 0.286667 12.5667 0.413334 13.14 0.56C13.7133 0.706667 14.18 0.853334 14.54 1C14.9 1.13333 15.1333 1.22667 15.24 1.28C15.28 1.28 15.3 1.30667 15.3 1.36L15.5 4.34C15.5267 4.42 15.4933 4.46 15.4 4.46C15.3867 4.46 15.3733 4.46 15.36 4.46C15.36 4.44667 15.3533 4.44 15.34 4.44C15.1 4.29333 14.76 4.12667 14.32 3.94C13.8933 3.74 13.3867 3.55333 12.8 3.38C12.2133 3.20667 11.5667 3.06 10.86 2.94C10.1667 2.82 9.43333 2.76 8.66 2.76C7.40667 2.76 6.39333 2.82667 5.62 2.96C4.84667 3.09333 4.24667 3.26 3.82 3.46C3.39333 3.64667 3.10667 3.86 2.96 4.1C2.82667 4.32667 2.76 4.54 2.76 4.74C2.76 5.3 3.22667 5.70667 4.16 5.96C5.09333 6.21333 6.37333 6.34 8 6.34C8.49333 6.34 9.04667 6.35333 9.66 6.38C10.2733 6.40667 10.9 6.47333 11.54 6.58C12.18 6.67333 12.8067 6.81333 13.42 7C14.0333 7.18667 14.58 7.44667 15.06 7.78C15.54 8.1 15.9267 8.5 16.22 8.98C16.5133 9.46 16.66 10.0333 16.66 10.7C16.66 10.8467 16.6333 11.0667 16.58 11.36C16.5267 11.64 16.4067 11.9467 16.22 12.28C16.0467 12.6133 15.7867 12.9533 15.44 13.3C15.0933 13.6467 14.6267 13.9667 14.04 14.26C13.4667 14.54 12.7533 14.7667 11.9 14.94C11.0467 15.1267 10.02 15.22 8.82 15.22Z" fill="#262626"></path>
</svg>